<?xml version="1.0" encoding="utf-8"?>
<!-- Generator: Adobe Illustrator 16.0.0, SVG Export Plug-In . SVG Version: 6.00 Build 0)  -->
<!DOCTYPE svg PUBLIC "-//W3C//DTD SVG 1.1//EN" "http://www.w3.org/Graphics/SVG/1.1/DTD/svg11.dtd">
<svg version="1.1" id="Capa_1" xmlns="http://www.w3.org/2000/svg" xmlns:xlink="http://www.w3.org/1999/xlink" x="0px" y="0px"
	 width="50px" height="50px" viewBox="0 0 50 50" enable-background="new 0 0 50 50" xml:space="preserve">
<g>
	<g>
		<path fill="#FFFFFF" d="M49.08,17.799c-0.571-0.641-1.352-1.059-2.203-1.177V16.62l-13.288-1.835L28.33,2.219
			c-0.768-1.839-2.881-2.708-4.72-1.939c-0.876,0.366-1.574,1.063-1.94,1.939l-5.258,12.565L3.123,16.62
			c-1.979,0.276-3.361,2.104-3.085,4.084c0.118,0.851,0.536,1.632,1.177,2.203l10.012,8.929L9.169,45.845
			c-0.223,1.423,0.431,2.841,1.657,3.595c1.209,0.773,2.765,0.744,3.944-0.073L25,42.409l10.23,6.964
			c1.65,1.121,3.896,0.69,5.017-0.96c0.509-0.751,0.718-1.665,0.585-2.562l-2.058-14.015l10.012-8.928
			C50.278,21.579,50.41,19.292,49.08,17.799z M35.678,29.819c-0.447,0.399-0.664,0.999-0.576,1.593l2.143,14.999L26.01,38.772
			c-0.606-0.411-1.402-0.411-2.008,0l-11.301,7.593l2.198-14.961c0.085-0.592-0.131-1.187-0.577-1.585L3.609,20.163l14.299-1.973
			c0.626-0.086,1.16-0.498,1.403-1.081l5.71-13.538c0.006,0.008,0.011,0.017,0.014,0.027l5.652,13.504
			c0.243,0.583,0.777,0.994,1.403,1.08l14.317,2.061L35.678,29.819z"/>
	</g>
</g>
</svg>
