<?xml version="1.0" encoding="utf-8"?>
<!-- Generator: Adobe Illustrator 16.0.0, SVG Export Plug-In . SVG Version: 6.00 Build 0)  -->
<!DOCTYPE svg PUBLIC "-//W3C//DTD SVG 1.1//EN" "http://www.w3.org/Graphics/SVG/1.1/DTD/svg11.dtd">
<svg version="1.1" id="Capa_1" xmlns="http://www.w3.org/2000/svg" xmlns:xlink="http://www.w3.org/1999/xlink" x="0px" y="0px"
	 width="50px" height="50px" viewBox="0 0 50 50" enable-background="new 0 0 50 50" xml:space="preserve">
<g>
	<g>
		<path fill="#FFFFFF" d="M36.336,0.108c-0.252-0.141-0.561-0.142-0.813,0c-0.401,0.224-0.545,0.731-0.32,1.132
			c4.194,7.545,4.194,16.722,0,24.267c-6.701,12.056-21.906,16.396-33.961,9.695c-0.254-0.145-0.564-0.145-0.818,0
			c-0.4,0.225-0.542,0.732-0.316,1.133c4.711,8.43,13.61,13.656,23.267,13.664c9.652-0.004,18.545-5.23,23.248-13.66
			C53.787,23.494,49.182,7.272,36.336,0.108z M37.957,43.598c-11.182,8.064-26.783,5.537-34.848-5.643
			c6.57,2.744,13.965,2.744,20.535,0c13.575-5.67,19.983-21.272,14.313-34.848c2.171,1.566,4.076,3.471,5.643,5.643
			C51.664,19.931,49.138,35.531,37.957,43.598z"/>
	</g>
</g>
</svg>
