<?xml version="1.0" encoding="utf-8"?>
<!-- Generator: Adobe Illustrator 16.0.0, SVG Export Plug-In . SVG Version: 6.00 Build 0)  -->
<!DOCTYPE svg PUBLIC "-//W3C//DTD SVG 1.1//EN" "http://www.w3.org/Graphics/SVG/1.1/DTD/svg11.dtd">
<svg version="1.1" id="Capa_1" xmlns="http://www.w3.org/2000/svg" xmlns:xlink="http://www.w3.org/1999/xlink" x="0px" y="0px"
	 width="50px" height="50px" viewBox="0 0 50 50" enable-background="new 0 0 50 50" xml:space="preserve">
<g>
	<g>
		<g>
			<path fill="#FFFFFF" d="M25.038,10.777c-7.077,0-12.858,5.782-12.858,12.859c0,3.7,1.619,7.262,4.348,9.667
				c2.035,2.035,1.85,6.383,1.804,6.43c0,0.23,0.046,0.416,0.231,0.601c0.139,0.139,0.37,0.231,0.555,0.231h11.794
				c0.231,0,0.416-0.093,0.555-0.231s0.232-0.37,0.232-0.601c0-0.047-0.232-4.395,1.803-6.43c0.047-0.047,0.093-0.093,0.139-0.139
				c2.684-2.451,4.256-5.921,4.256-9.528C37.896,16.559,32.115,10.777,25.038,10.777z M32.438,32.1
				c-0.046,0.047-0.139,0.139-0.139,0.186c-1.804,1.942-2.128,5.134-2.174,6.66H19.904c-0.046-1.526-0.37-4.856-2.313-6.846
				c-2.452-2.127-3.885-5.227-3.885-8.51c0-6.244,5.042-11.286,11.286-11.286c6.245,0,11.286,5.042,11.286,11.286
				C36.277,26.873,34.891,29.973,32.438,32.1z"/>
			<path fill="#FFFFFF" d="M24.992,14.061c-0.416,0-0.786,0.37-0.786,0.786c0,0.417,0.37,0.787,0.786,0.787
				c4.672,0,8.418,3.792,8.418,8.418c0,0.417,0.369,0.786,0.786,0.786c0.416,0,0.786-0.37,0.786-0.786
				C35.029,18.548,30.542,14.061,24.992,14.061z"/>
			<path fill="#FFFFFF" d="M30.126,41.443H19.857c-1.063,0-1.942,0.879-1.942,1.942s0.879,1.942,1.942,1.942H30.08
				c1.109-0.046,1.988-0.879,1.988-1.942S31.189,41.443,30.126,41.443z M30.126,43.709H19.857c-0.185,0-0.37-0.139-0.37-0.369
				c0-0.231,0.139-0.37,0.37-0.37H30.08c0.185,0,0.369,0.139,0.369,0.37C30.449,43.57,30.311,43.709,30.126,43.709z"/>
			<path fill="#FFFFFF" d="M28.6,46.115h-7.216c-1.063,0-1.942,0.879-1.942,1.941c0,1.064,0.879,1.943,1.942,1.943H28.6
				c1.064,0,1.942-0.879,1.942-1.943C30.542,46.947,29.664,46.115,28.6,46.115z M28.6,48.381h-7.216c-0.185,0-0.37-0.139-0.37-0.369
				c0-0.232,0.139-0.371,0.37-0.371H28.6c0.186,0,0.37,0.139,0.37,0.371C28.97,48.242,28.785,48.381,28.6,48.381z"/>
			<path fill="#FFFFFF" d="M24.992,6.938c0.462,0,0.787-0.37,0.787-0.786V0.786C25.778,0.37,25.408,0,24.992,0
				c-0.416,0-0.786,0.37-0.786,0.786v5.366C24.206,6.568,24.576,6.938,24.992,6.938z"/>
			<path fill="#FFFFFF" d="M38.082,3.978c-0.371-0.277-0.833-0.139-1.064,0.185l-2.96,4.44c-0.278,0.37-0.185,0.879,0.185,1.11
				c0.139,0.092,0.277,0.139,0.416,0.139c0.278,0,0.51-0.139,0.648-0.37l2.96-4.44C38.544,4.718,38.451,4.209,38.082,3.978z"/>
			<path fill="#FFFFFF" d="M15.603,9.667c0.139,0,0.277-0.046,0.416-0.139c0.37-0.231,0.462-0.74,0.231-1.11l-2.868-4.486
				c-0.231-0.37-0.74-0.462-1.11-0.231c-0.37,0.231-0.462,0.74-0.231,1.11l2.868,4.486C15.094,9.574,15.325,9.667,15.603,9.667z"/>
			<path fill="#FFFFFF" d="M10.006,14.57l-4.672-2.544c-0.37-0.185-0.879-0.046-1.064,0.324c-0.231,0.37-0.092,0.879,0.324,1.064
				l4.671,2.544c0.139,0.046,0.231,0.092,0.37,0.092c0.277,0,0.555-0.139,0.694-0.416C10.515,15.264,10.375,14.755,10.006,14.57z"/>
			<path fill="#FFFFFF" d="M45.76,12.35c-0.186-0.37-0.693-0.509-1.064-0.324l-4.717,2.544c-0.371,0.185-0.51,0.694-0.324,1.064
				c0.139,0.277,0.416,0.416,0.693,0.416c0.139,0,0.277-0.046,0.37-0.092l4.718-2.544C45.806,13.229,45.945,12.72,45.76,12.35z"/>
		</g>
	</g>
</g>
</svg>
